<?xml version="1.0" standalone="no"?>
<!DOCTYPE svg PUBLIC "-//W3C//DTD SVG 20010904//EN"
 "http://www.w3.org/TR/2001/REC-SVG-20010904/DTD/svg10.dtd">
<svg version="1.0" xmlns="http://www.w3.org/2000/svg"
 width="1080.000000pt" height="1080.000000pt" viewBox="0 0 1080.000000 1080.000000"
 preserveAspectRatio="xMidYMid meet">
<metadata>
Created by potrace 1.16, written by Peter Selinger 2001-2019
</metadata>
<g transform="translate(0.000000,1080.000000) scale(0.100000,-0.100000)"
fill="#000000" stroke="none">
<path d="M4860 10789 c-253 -20 -694 -97 -795 -139 -21 -9 -59 -18 -113 -27
-18 -3 -35 -9 -38 -14 -3 -5 -18 -9 -34 -9 -16 0 -32 -4 -35 -10 -3 -5 -19
-10 -35 -10 -16 0 -32 -4 -35 -10 -3 -5 -17 -10 -30 -10 -13 0 -27 -4 -30 -10
-3 -5 -17 -10 -30 -10 -13 0 -27 -4 -30 -10 -3 -5 -15 -10 -26 -10 -10 0 -27
-4 -37 -9 -9 -5 -48 -21 -87 -36 -38 -15 -81 -32 -95 -37 -31 -13 -68 -28 -97
-39 -13 -5 -33 -13 -45 -18 -79 -30 -392 -183 -396 -193 -2 -5 -12 -8 -23 -8
-10 0 -19 -3 -19 -8 0 -4 -14 -13 -30 -21 -17 -7 -78 -42 -136 -77 -58 -35
-110 -64 -115 -64 -5 0 -9 -4 -9 -10 0 -5 -5 -10 -11 -10 -12 0 -322 -210
-327 -222 -2 -4 -10 -8 -17 -8 -7 0 -15 -3 -17 -8 -3 -6 -103 -88 -188 -152
-35 -27 -43 -34 -139 -118 -248 -218 -514 -497 -675 -706 -21 -28 -42 -53 -45
-56 -4 -3 -18 -21 -31 -40 -13 -19 -30 -41 -38 -49 -7 -7 -31 -41 -54 -75 -23
-33 -45 -63 -48 -66 -4 -3 -13 -16 -20 -29 -7 -14 -17 -30 -21 -35 -26 -32
-99 -147 -99 -156 0 -5 -4 -10 -8 -10 -5 0 -24 -29 -43 -65 -18 -36 -37 -65
-40 -65 -4 0 -9 -8 -12 -17 -3 -10 -22 -45 -41 -78 -20 -33 -74 -139 -122
-235 -117 -238 -114 -231 -114 -247 0 -7 -4 -13 -10 -13 -5 0 -10 -9 -10 -19
0 -11 -4 -23 -10 -26 -5 -3 -10 -17 -10 -30 0 -13 -5 -27 -10 -30 -6 -3 -10
-15 -10 -26 0 -10 -4 -19 -10 -19 -5 0 -10 -9 -10 -20 0 -11 -4 -28 -9 -38
-15 -27 -38 -83 -52 -127 -7 -22 -17 -44 -21 -49 -4 -6 -8 -20 -8 -32 0 -13
-5 -26 -10 -29 -6 -3 -10 -19 -10 -36 0 -16 -4 -29 -10 -29 -5 0 -10 -10 -10
-22 0 -23 -16 -81 -31 -110 -5 -10 -9 -31 -9 -47 0 -17 -5 -33 -10 -36 -6 -3
-10 -21 -10 -40 0 -19 -5 -37 -10 -40 -6 -3 -10 -17 -10 -31 0 -14 -5 -34 -11
-45 -6 -11 -15 -44 -20 -72 -6 -29 -14 -74 -20 -102 -74 -375 -87 -539 -87
-1090 0 -466 7 -600 47 -865 30 -192 81 -431 102 -472 5 -10 9 -31 9 -48 0
-16 5 -30 10 -30 6 0 10 -12 10 -27 0 -27 15 -84 31 -115 5 -10 9 -29 9 -42 0
-14 5 -28 10 -31 5 -3 10 -17 10 -30 0 -13 5 -27 10 -30 5 -3 10 -17 10 -30 0
-13 5 -27 10 -30 5 -3 10 -15 10 -26 0 -10 4 -27 10 -37 11 -21 34 -76 50
-122 7 -19 17 -46 22 -60 6 -14 15 -36 21 -50 5 -14 13 -33 18 -42 5 -10 9
-25 9 -33 0 -8 5 -15 10 -15 6 0 10 -7 10 -15 0 -8 4 -23 9 -33 54 -105 121
-250 121 -259 0 -7 5 -13 10 -13 6 0 10 -9 10 -20 0 -11 5 -20 10 -20 6 0 10
-9 10 -20 0 -11 5 -20 10 -20 6 0 10 -4 10 -10 0 -5 20 -44 45 -86 25 -41 45
-80 45 -85 0 -5 4 -9 9 -9 5 0 11 -8 14 -18 12 -34 164 -275 179 -280 4 -2 8
-9 8 -15 0 -7 14 -28 30 -47 16 -19 30 -40 30 -47 0 -6 3 -13 7 -15 5 -1 35
-39 68 -83 33 -44 64 -85 70 -91 5 -6 21 -26 35 -44 144 -192 434 -496 680
-712 99 -86 105 -91 140 -118 18 -14 38 -29 44 -35 6 -5 40 -32 76 -60 36 -27
67 -53 68 -57 2 -5 10 -8 17 -8 7 0 15 -4 17 -8 5 -12 315 -222 327 -222 6 0
11 -4 11 -9 0 -5 8 -11 18 -14 18 -7 77 -40 157 -91 27 -18 65 -39 83 -47 17
-7 32 -17 32 -21 0 -5 9 -8 20 -8 11 0 20 -4 20 -10 0 -5 9 -10 19 -10 11 0
21 -3 23 -7 2 -5 57 -34 123 -66 66 -32 128 -63 137 -68 10 -5 25 -9 33 -9 8
0 15 -4 15 -10 0 -5 7 -10 15 -10 8 0 23 -4 33 -9 23 -12 95 -42 147 -61 82
-31 163 -63 177 -71 10 -5 27 -9 37 -9 11 0 23 -4 26 -10 3 -5 17 -10 30 -10
13 0 27 -4 30 -10 3 -5 17 -10 30 -10 13 0 27 -4 30 -10 3 -5 19 -10 35 -10
16 0 32 -5 35 -10 3 -6 19 -10 35 -10 16 0 31 -4 34 -9 3 -5 20 -11 38 -14 49
-8 230 -54 304 -77 17 -6 47 -10 67 -10 20 0 39 -4 42 -10 3 -5 28 -10 54 -10
26 0 51 -4 56 -9 6 -5 35 -12 65 -15 30 -3 93 -10 140 -16 184 -22 330 -28
715 -28 385 0 549 6 720 28 44 5 105 12 135 15 30 3 64 10 75 15 11 5 40 11
65 14 70 8 159 26 290 61 36 9 80 19 98 22 18 3 35 9 38 14 3 5 18 9 34 9 16
0 32 5 35 10 3 6 19 10 35 10 16 0 32 5 35 10 3 6 19 10 35 10 16 0 32 5 35
10 3 6 17 10 30 10 13 0 27 5 30 10 3 6 17 10 30 10 13 0 27 5 30 10 3 6 17
10 30 10 13 0 27 5 30 10 3 6 14 10 24 10 9 0 41 11 69 25 29 14 56 25 62 25
6 0 18 4 28 9 19 10 73 32 145 60 77 30 351 164 355 174 2 4 12 7 23 7 10 0
19 5 19 10 0 6 9 10 20 10 11 0 20 3 20 8 0 4 14 13 30 21 17 7 78 42 136 77
58 35 110 64 115 64 5 0 9 5 9 10 0 6 5 10 11 10 12 0 292 190 297 202 2 4 10
8 18 8 8 0 14 5 14 10 0 6 6 10 14 10 8 0 16 3 18 8 3 6 109 92 188 152 18 14
38 30 44 35 6 6 47 41 91 80 182 159 398 373 515 511 14 16 50 59 80 94 31 36
68 81 83 102 14 20 32 42 39 50 21 22 102 129 138 183 19 28 40 56 47 63 7 7
13 17 13 21 0 4 11 21 25 37 14 16 25 32 25 37 0 4 16 30 35 57 19 27 35 54
35 60 0 5 4 10 8 10 5 0 17 17 28 37 32 60 49 88 55 93 3 3 8 12 12 20 3 8 22
42 41 75 20 33 76 143 126 245 50 102 95 193 101 202 5 10 9 25 9 33 0 8 5 15
10 15 6 0 10 9 10 19 0 11 5 23 10 26 6 3 10 17 10 30 0 13 5 27 10 30 6 3 10
15 10 26 0 10 5 19 10 19 6 0 10 9 10 20 0 11 4 28 9 38 4 9 15 31 23 47 8 17
21 50 28 75 7 25 17 49 22 54 4 6 8 20 8 32 0 13 5 26 10 29 6 3 10 17 10 30
0 13 4 26 9 29 5 3 12 22 15 41 3 19 9 51 12 70 3 19 10 38 15 41 5 3 9 18 9
34 0 16 5 32 10 35 6 3 10 19 10 35 0 16 4 32 10 35 5 3 10 22 10 41 0 20 5
44 10 55 17 31 53 204 81 389 40 264 47 402 47 855 0 448 -10 640 -48 865 -6
36 -13 88 -16 115 -3 28 -10 54 -15 60 -5 5 -9 25 -9 44 0 34 -4 51 -34 146
-9 28 -16 62 -16 77 0 15 -4 29 -9 32 -5 3 -12 22 -15 41 -3 19 -9 51 -12 70
-3 19 -10 38 -15 41 -5 3 -9 15 -9 26 0 20 -11 61 -30 113 -4 11 -22 65 -39
120 -18 55 -38 114 -45 130 -15 32 -33 75 -49 115 -5 14 -13 32 -16 40 -4 8
-14 36 -22 63 -7 26 -17 47 -21 47 -4 0 -8 9 -8 20 0 11 -4 20 -10 20 -5 0
-10 7 -10 15 0 8 -4 23 -10 33 -5 9 -45 91 -90 182 -44 91 -92 183 -105 205
-14 22 -28 47 -32 55 -3 8 -9 17 -12 20 -6 5 -23 35 -72 128 -13 23 -26 42
-31 42 -4 0 -8 4 -8 9 0 10 -77 130 -110 171 -11 14 -20 30 -20 37 0 6 -4 13
-8 15 -4 2 -19 19 -32 38 -47 68 -135 185 -150 200 -9 8 -27 31 -40 50 -13 19
-42 56 -64 81 -23 25 -63 72 -91 104 -135 159 -323 346 -515 515 -34 30 -72
64 -85 75 -12 11 -37 31 -55 45 -85 64 -185 146 -188 152 -2 5 -10 8 -18 8 -8
0 -14 5 -14 10 0 6 -6 10 -14 10 -8 0 -16 4 -18 8 -5 12 -285 202 -297 202 -6
0 -11 5 -11 10 0 6 -7 10 -15 10 -8 0 -15 5 -15 10 0 6 -5 10 -10 10 -6 0 -51
24 -101 54 -49 30 -103 61 -119 68 -17 7 -30 16 -30 20 0 5 -9 8 -19 8 -11 0
-21 3 -23 8 -4 10 -312 161 -395 193 -13 5 -35 14 -50 20 -16 7 -38 16 -50 20
-74 29 -146 59 -165 69 -10 6 -27 10 -37 10 -11 0 -23 5 -26 10 -3 6 -17 10
-30 10 -13 0 -27 5 -30 10 -3 6 -17 10 -30 10 -13 0 -27 5 -30 10 -3 6 -17 10
-30 10 -13 0 -27 5 -30 10 -3 6 -19 10 -35 10 -16 0 -32 5 -35 10 -3 6 -19 10
-35 10 -16 0 -32 5 -35 10 -3 6 -19 10 -35 10 -16 0 -31 4 -34 9 -3 5 -20 11
-38 14 -18 3 -62 13 -98 22 -136 36 -222 54 -295 62 -27 2 -54 9 -60 14 -5 5
-32 9 -60 9 -28 0 -55 4 -60 9 -6 5 -44 12 -85 15 -41 3 -129 10 -195 15 -139
11 -925 11 -1065 0z m960 -698 c132 -12 247 -26 338 -41 34 -5 88 -14 120 -19
31 -6 78 -15 105 -20 26 -6 66 -15 90 -20 23 -5 67 -17 97 -26 30 -9 70 -19
88 -22 18 -3 35 -9 38 -14 3 -5 18 -9 34 -9 16 0 32 -4 35 -10 3 -5 19 -10 35
-10 16 0 32 -4 35 -10 3 -5 17 -10 30 -10 13 0 27 -4 30 -10 3 -5 17 -10 30
-10 13 0 27 -4 30 -10 3 -5 15 -10 26 -10 10 0 28 -4 39 -10 11 -5 29 -14 40
-20 11 -5 24 -10 30 -10 9 0 103 -40 142 -61 10 -5 25 -9 33 -9 8 0 15 -4 15
-10 0 -5 7 -10 15 -10 8 0 23 -4 33 -9 9 -5 40 -19 67 -31 84 -38 264 -129
275 -140 3 -3 19 -12 35 -20 17 -8 32 -17 35 -20 3 -3 19 -12 35 -20 45 -22
330 -209 410 -269 117 -87 128 -96 139 -106 6 -5 27 -22 46 -36 19 -15 46 -36
59 -48 14 -12 54 -47 90 -79 128 -113 353 -343 466 -476 28 -33 55 -64 60 -70
6 -6 18 -22 28 -36 9 -14 35 -47 57 -75 22 -27 63 -84 92 -125 28 -41 54 -77
58 -80 8 -6 100 -149 100 -156 0 -3 9 -14 20 -26 11 -12 20 -28 20 -35 0 -7 4
-13 8 -13 5 0 14 -16 22 -35 8 -19 16 -35 19 -35 4 0 12 -15 20 -32 8 -18 24
-49 36 -68 24 -39 124 -234 135 -265 4 -11 17 -40 29 -63 11 -24 21 -50 21
-58 0 -8 5 -14 10 -14 6 0 10 -7 10 -15 0 -8 4 -23 10 -33 8 -15 22 -47 52
-122 6 -14 14 -33 19 -42 5 -10 9 -27 9 -37 0 -11 5 -23 10 -26 6 -3 10 -17
10 -30 0 -13 5 -27 10 -30 6 -3 10 -17 10 -30 0 -13 5 -27 10 -30 6 -3 10 -19
10 -35 0 -16 5 -32 10 -35 6 -3 10 -17 10 -30 0 -13 5 -27 10 -30 6 -3 10 -17
10 -30 0 -13 4 -34 9 -47 5 -13 17 -50 26 -83 9 -33 21 -74 26 -91 5 -17 9
-44 9 -60 0 -17 4 -34 9 -39 5 -6 12 -30 15 -55 3 -25 10 -72 16 -105 12 -65
24 -152 40 -285 17 -142 27 -540 18 -764 -9 -249 -26 -426 -58 -601 -6 -33
-13 -80 -16 -105 -3 -25 -10 -49 -15 -54 -5 -6 -9 -27 -9 -47 0 -21 -4 -41
-10 -44 -5 -3 -10 -20 -10 -36 0 -17 -5 -40 -12 -52 -11 -22 -24 -72 -35 -134
-3 -18 -9 -33 -14 -33 -5 0 -9 -13 -9 -29 0 -17 -4 -33 -10 -36 -5 -3 -10 -19
-10 -35 0 -16 -4 -32 -10 -35 -5 -3 -10 -17 -10 -30 0 -13 -4 -27 -10 -30 -5
-3 -10 -17 -10 -30 0 -13 -4 -27 -10 -30 -5 -3 -10 -15 -10 -26 0 -10 -4 -27
-9 -37 -5 -9 -13 -28 -19 -42 -30 -75 -44 -107 -52 -122 -6 -10 -10 -25 -10
-33 0 -8 -4 -15 -10 -15 -5 0 -10 -6 -10 -13 0 -8 -6 -27 -14 -43 -8 -16 -21
-47 -31 -69 -25 -60 -136 -278 -149 -295 -7 -8 -18 -28 -26 -45 -8 -16 -17
-32 -20 -35 -3 -3 -11 -16 -18 -29 -8 -13 -22 -39 -32 -57 -30 -53 -171 -266
-186 -281 -8 -8 -14 -18 -14 -23 0 -5 -6 -15 -13 -22 -7 -7 -39 -49 -72 -93
-33 -44 -64 -85 -70 -91 -5 -6 -28 -32 -50 -59 -49 -60 -247 -277 -296 -325
-79 -77 -199 -188 -250 -232 -123 -105 -126 -107 -169 -138 -37 -26 -54 -40
-104 -81 -17 -14 -60 -45 -96 -69 -36 -24 -66 -47 -68 -52 -2 -4 -8 -8 -14 -8
-6 0 -40 -21 -77 -46 -36 -26 -81 -55 -98 -65 -18 -11 -50 -29 -70 -41 -21
-11 -56 -31 -78 -42 -22 -12 -42 -23 -45 -26 -3 -3 -23 -14 -45 -26 -22 -11
-62 -32 -88 -47 -26 -15 -54 -27 -62 -27 -8 0 -15 -4 -15 -10 0 -5 -6 -10 -14
-10 -12 0 -44 -14 -118 -51 -10 -5 -25 -9 -33 -9 -8 0 -15 -4 -15 -10 0 -5 -7
-10 -15 -10 -8 0 -23 -4 -33 -9 -46 -24 -134 -61 -147 -61 -7 0 -17 -4 -20
-10 -3 -5 -15 -10 -26 -10 -10 0 -27 -4 -37 -9 -61 -31 -80 -35 -170 -35 -88
0 -101 2 -136 26 -21 14 -50 43 -64 65 l-27 38 -5 820 c-3 451 -9 826 -14 833
-7 12 -19 70 -33 165 -3 20 -9 37 -14 37 -5 0 -9 14 -9 30 0 17 -4 30 -10 30
-5 0 -10 7 -10 16 0 19 -50 128 -62 132 -4 2 -8 8 -8 14 0 18 -90 138 -118
156 l-26 17 64 8 c36 4 92 10 125 13 33 3 64 10 70 15 5 5 30 9 55 9 25 0 50
4 55 9 6 5 28 11 50 14 37 4 104 21 195 48 19 6 50 13 68 16 18 3 35 9 38 14
3 5 16 9 29 9 13 0 27 5 30 10 3 6 17 10 30 10 13 0 27 5 30 10 3 6 17 10 31
10 13 0 24 5 24 10 0 6 9 10 20 10 11 0 28 4 38 9 9 5 58 29 107 54 108 53
178 90 185 97 3 3 17 11 32 19 91 47 328 255 427 376 46 56 131 182 131 195 0
5 3 10 8 10 4 0 13 15 21 32 8 18 17 35 20 38 4 3 19 32 34 65 16 33 33 68 38
77 5 10 9 25 9 33 0 8 4 15 8 15 5 0 15 23 22 51 8 27 18 52 22 55 4 3 8 18 8
34 0 16 4 31 9 34 5 3 11 18 14 33 3 16 10 46 16 68 73 283 83 379 83 780 0
319 -6 432 -23 450 -5 5 -9 26 -9 46 0 21 -4 41 -10 44 -5 3 -10 16 -10 28 0
12 -7 35 -15 51 -8 15 -15 39 -15 52 0 13 -4 24 -10 24 -5 0 -10 9 -10 20 0
11 -4 28 -9 38 -5 9 -13 28 -19 42 -26 66 -66 143 -112 220 -27 46 -50 87 -50
92 0 4 -4 8 -8 8 -4 0 -16 13 -25 30 -10 16 -23 35 -30 42 -7 7 -25 31 -41 53
-17 22 -39 48 -50 58 -17 15 -18 21 -8 37 17 28 44 139 64 265 15 91 14 368 0
470 -11 74 -16 100 -40 210 -5 22 -14 50 -20 62 -7 12 -12 33 -12 47 0 14 -4
28 -10 31 -5 3 -10 15 -10 26 0 10 -4 27 -9 37 -5 9 -16 33 -24 54 -14 33 -20
37 -68 45 -57 9 -214 -6 -284 -27 -22 -6 -58 -16 -80 -22 -22 -5 -48 -14 -57
-19 -10 -5 -27 -9 -37 -9 -11 0 -23 -4 -26 -10 -3 -5 -15 -10 -26 -10 -10 0
-28 -4 -39 -10 -11 -6 -29 -14 -40 -20 -11 -5 -27 -10 -35 -10 -8 0 -15 -4
-15 -10 0 -5 -6 -10 -12 -10 -13 0 -238 -109 -248 -120 -3 -3 -23 -14 -45 -26
-65 -34 -105 -58 -197 -118 -69 -44 -96 -56 -127 -56 -22 0 -42 4 -45 9 -3 5
-23 11 -43 14 -42 6 -95 18 -193 43 -210 52 -614 97 -885 97 -280 0 -671 -43
-895 -99 -36 -9 -82 -18 -103 -21 -20 -3 -40 -9 -43 -14 -3 -5 -20 -9 -39 -9
-19 0 -37 -4 -40 -10 -3 -5 -28 -10 -56 -10 -27 0 -49 5 -49 10 0 6 -5 10 -11
10 -7 0 -34 16 -62 36 -27 20 -65 44 -83 55 -19 10 -51 29 -71 41 -121 69
-314 165 -403 200 -14 6 -33 14 -42 19 -10 5 -27 9 -37 9 -11 0 -23 5 -26 10
-3 6 -15 10 -26 10 -10 0 -27 4 -37 9 -9 5 -35 14 -57 19 -22 6 -65 17 -95 25
-70 20 -216 31 -275 22 -41 -6 -48 -10 -62 -43 -8 -20 -19 -45 -24 -54 -5 -10
-9 -27 -9 -37 0 -11 -4 -23 -10 -26 -5 -3 -10 -19 -10 -34 0 -15 -4 -31 -9
-36 -17 -17 -44 -138 -63 -280 -20 -146 -11 -524 13 -549 5 -6 9 -24 9 -40 0
-31 21 -102 42 -143 9 -19 8 -26 -8 -40 -11 -10 -33 -36 -50 -58 -16 -22 -34
-46 -41 -53 -7 -7 -20 -26 -30 -42 -9 -17 -21 -30 -25 -30 -4 0 -8 -4 -8 -9 0
-5 -23 -46 -50 -90 -28 -45 -62 -107 -76 -139 -14 -31 -30 -65 -35 -74 -5 -10
-9 -25 -9 -33 0 -8 -4 -15 -10 -15 -5 0 -10 -9 -10 -20 0 -11 -4 -28 -9 -38
-19 -37 -61 -181 -61 -210 0 -17 -4 -33 -9 -36 -17 -11 -24 -137 -24 -451 -1
-188 4 -355 11 -405 26 -190 39 -264 60 -332 28 -88 32 -105 32 -126 0 -11 5
-24 10 -27 5 -3 10 -16 10 -29 0 -12 4 -26 8 -31 4 -6 14 -28 21 -50 24 -76
140 -315 153 -315 4 0 8 -9 8 -19 0 -11 4 -21 8 -23 4 -1 28 -32 53 -68 64
-93 82 -113 194 -226 93 -93 242 -214 303 -245 15 -8 29 -16 32 -19 3 -3 19
-12 35 -20 17 -8 32 -17 35 -20 6 -6 194 -98 230 -112 14 -6 33 -14 42 -19 10
-5 27 -9 37 -9 11 0 23 -4 26 -10 3 -5 17 -10 30 -10 13 0 27 -4 30 -10 3 -5
17 -10 30 -10 13 0 27 -4 30 -10 3 -5 19 -10 35 -10 16 0 31 -4 34 -9 3 -5 20
-11 38 -14 18 -3 60 -13 93 -22 33 -10 78 -19 100 -22 22 -3 44 -9 50 -14 5
-5 30 -9 55 -9 25 0 50 -4 55 -9 6 -5 39 -12 75 -15 36 -4 91 -9 122 -12 l58
-6 -33 -31 c-56 -56 -95 -116 -153 -237 -14 -30 -30 -63 -35 -72 -5 -10 -9
-25 -9 -33 0 -8 -4 -23 -9 -33 -16 -33 -31 -89 -31 -120 0 -17 -4 -34 -10 -37
-6 -3 -10 -19 -10 -36 0 -24 -4 -29 -24 -29 -14 0 -28 -5 -31 -10 -3 -6 -17
-10 -31 -10 -13 0 -24 -4 -24 -10 0 -5 -13 -10 -29 -10 -17 0 -33 -4 -36 -10
-3 -5 -21 -10 -39 -10 -17 0 -36 -4 -41 -9 -25 -23 -360 -39 -445 -21 -151 32
-224 61 -335 134 -100 65 -295 281 -295 325 0 6 -4 11 -10 11 -5 0 -10 6 -10
13 0 7 -8 22 -18 33 -11 11 -21 25 -23 31 -17 48 -254 283 -286 283 -7 0 -13
5 -13 10 0 6 -6 10 -14 10 -8 0 -16 3 -18 8 -1 4 -25 18 -53 31 -27 13 -58 27
-67 32 -35 18 -104 39 -128 39 -15 0 -31 5 -37 11 -11 11 -166 7 -218 -6 -16
-4 -45 -18 -62 -32 -29 -21 -33 -30 -33 -69 0 -41 5 -50 53 -97 57 -57 102
-93 147 -118 72 -40 209 -166 266 -244 16 -22 37 -49 47 -59 9 -11 17 -25 17
-32 0 -7 4 -14 9 -16 12 -4 131 -236 131 -254 0 -8 5 -14 10 -14 6 0 10 -7 10
-15 0 -19 71 -169 82 -173 4 -2 8 -8 8 -13 0 -30 151 -209 230 -273 41 -33
188 -126 199 -126 6 0 11 -4 11 -10 0 -5 7 -10 15 -10 8 0 23 -4 33 -9 9 -5
31 -14 47 -21 17 -7 38 -16 47 -21 10 -5 29 -9 42 -9 14 0 27 -4 30 -9 3 -5
25 -12 48 -15 24 -4 72 -11 108 -17 87 -15 425 -16 525 -1 44 6 106 15 138 20
l58 8 -3 -430 c-3 -459 -2 -445 -53 -502 -44 -49 -89 -64 -193 -64 -54 0 -102
4 -107 8 -6 4 -28 14 -50 21 -22 7 -49 16 -60 21 -11 4 -45 18 -75 30 -30 12
-71 29 -90 37 -19 8 -44 19 -55 23 -78 30 -449 213 -465 230 -3 3 -14 10 -25
16 -55 30 -82 47 -230 143 -134 87 -233 157 -255 181 -3 3 -21 17 -40 30 -19
13 -40 29 -46 35 -14 12 -38 32 -78 63 -158 123 -474 442 -633 638 -26 33 -51
61 -55 62 -4 2 -8 8 -8 14 0 6 -15 27 -32 48 -18 20 -51 63 -73 95 -22 31 -44
63 -50 69 -5 6 -16 23 -24 39 -8 15 -18 27 -23 27 -4 0 -8 5 -8 10 0 12 -47
86 -72 114 -10 11 -18 26 -18 33 0 7 -3 13 -7 13 -5 0 -13 10 -19 23 -6 12
-25 47 -41 77 -17 30 -49 89 -72 130 -42 76 -127 249 -141 285 -4 11 -18 43
-30 70 -12 28 -26 59 -31 70 -4 11 -19 46 -33 78 -14 32 -26 64 -26 72 0 7 -4
17 -10 20 -5 3 -10 17 -10 30 0 13 -4 27 -10 30 -5 3 -10 17 -10 30 0 13 -4
27 -10 30 -5 3 -10 15 -10 26 0 10 -4 27 -9 37 -5 9 -14 37 -21 62 -7 25 -16
53 -21 62 -5 10 -9 27 -9 37 0 11 -4 30 -9 43 -16 44 -34 103 -43 143 -5 22
-14 60 -19 85 -6 25 -13 63 -15 85 -3 22 -9 49 -14 60 -5 11 -12 43 -15 70 -3
28 -10 82 -16 120 -35 242 -50 603 -38 909 9 210 16 296 39 466 5 41 12 98 15
125 3 28 10 59 15 70 5 11 11 38 14 60 6 52 20 117 40 185 8 30 18 66 22 80 3
14 9 34 14 45 9 21 18 59 27 113 3 18 9 35 14 38 5 3 9 16 9 29 0 13 5 27 10
30 6 3 10 17 10 30 0 13 5 27 10 30 6 3 10 17 10 30 0 13 4 27 10 30 5 3 10
15 10 26 0 10 4 27 9 37 5 9 13 28 19 42 5 14 22 51 36 83 14 32 26 64 26 72
0 7 4 17 10 20 5 3 10 15 10 26 0 10 5 19 10 19 6 0 10 9 10 20 0 11 5 20 10
20 6 0 10 7 10 15 0 8 4 23 9 33 5 9 19 40 32 67 13 28 27 52 32 53 4 2 7 12
7 23 0 10 5 19 10 19 6 0 10 7 10 15 0 9 11 33 25 55 14 22 25 44 25 50 0 5 3
10 8 10 4 0 12 10 18 23 48 96 206 351 240 384 8 8 14 18 14 23 0 5 6 15 13
22 8 7 26 31 40 53 39 59 153 202 206 261 25 28 58 65 72 83 57 70 318 328
409 405 19 16 53 45 75 65 22 20 56 47 74 61 19 14 39 30 45 35 22 20 175 133
205 151 17 10 31 22 31 26 0 4 7 8 15 8 8 0 15 5 15 10 0 6 7 10 15 10 8 0 15
5 15 10 0 6 7 10 15 10 8 0 15 5 15 10 0 6 5 10 11 10 6 0 32 15 58 34 46 34
90 60 166 100 22 12 42 23 45 26 12 12 269 142 357 181 24 11 62 28 85 38 24
10 75 32 113 47 39 15 74 31 80 36 5 4 19 8 31 8 13 0 26 5 29 10 3 6 17 10
30 10 13 0 27 5 30 10 3 6 17 10 30 10 13 0 27 5 30 10 3 6 17 10 30 10 13 0
27 5 30 10 3 6 19 10 35 10 16 0 32 5 35 10 3 6 19 10 35 10 16 0 32 5 35 10
3 6 19 10 34 10 15 0 31 3 35 7 8 8 89 31 141 39 17 3 39 9 50 14 21 9 66 17
145 26 25 3 54 9 65 14 11 5 45 12 75 15 30 3 91 10 135 15 44 6 135 14 202
18 67 4 126 11 130 15 10 10 544 1 693 -12z"/>
</g>
</svg>
